<?xml version="1.0" ?>
<svg data-name="Layer 1" height="512px" id="Layer_1" viewBox="0 0 512 512" width="512px"
     xmlns="http://www.w3.org/2000/svg">
  <defs>
    <style>.cls-1 {
      fill: #9de8fc;
    }

    .cls-1, .cls-2, .cls-3 {
      stroke: #493527;
      stroke-linejoin: round;
      stroke-width: 10px;
    }

    .cls-2 {
      fill: #f9f7e1;
    }

    .cls-3 {
      fill: #f95f5f;
    }

    .cls-4 {
      fill: #493527;
    }</style>
  </defs>
  <title/>
  <path class="cls-1" d="M152.05,365.4c0,10.12,46.54,28.28,104,28.28s104-18.16,104-28.28V247.79H152.05Z"/>
  <path class="cls-2"
        d="M324.3,189.56H187.7a43.7,43.7,0,1,0,34.15,71,43.69,43.69,0,0,0,68.3,0,43.7,43.7,0,1,0,34.15-71Z"/>
  <path class="cls-3"
        d="M292.8,175.57a36.8,36.8,0,0,1-73.6,0c0-20.32,16.47-57.25,36.8-57.25S292.8,155.25,292.8,175.57Z"/>
  <path class="cls-4" d="M240,168.37a2.91,2.91,0,1,1-5.81,0c0-1.61,1.3-5.69,2.91-5.69S240,166.76,240,168.37Z"/>
  <path class="cls-4"
        d="M248.22,193.06a2.91,2.91,0,1,1-5.55,1.73c-.48-1.53-.45-5.82,1.08-6.3S247.74,191.53,248.22,193.06Z"/>
  <path class="cls-4"
        d="M259.23,177.34a2.91,2.91,0,1,1-5.81.18c0-1.6,1.12-5.73,2.73-5.78S259.18,175.73,259.23,177.34Z"/>
  <path class="cls-4" d="M274.5,195.87a2.9,2.9,0,1,1-5.44,2c-.57-1.51-.78-5.79.72-6.35S273.94,194.37,274.5,195.87Z"/>
  <path class="cls-4" d="M271,156.8a2.91,2.91,0,1,1-5.8-.38c.1-1.61,1.67-5.6,3.28-5.49S271.15,155.2,271,156.8Z"/>
  <path class="cls-4" d="M277.83,177.2a2.91,2.91,0,1,1-5.79.51c-.14-1.6.8-5.79,2.4-5.93S277.69,175.6,277.83,177.2Z"/>
  <path class="cls-4" d="M252.89,154.2a2.9,2.9,0,1,1-5.7-1.11c.31-1.58,2.37-5.34,3.94-5S253.2,152.63,252.89,154.2Z"/>
  <path class="cls-4"
        d="M262.93,135.23a2.91,2.91,0,1,1-5.81-.19c.05-1.6,1.48-5.65,3.09-5.59S263,133.63,262.93,135.23Z"/>
  <path class="cls-1" d="M360,321.31c0,8.24-46.54,25.89-103.95,25.89s-103.95-17.65-103.95-25.89"/>
</svg>
