<?xml version="1.0" encoding="iso-8859-1"?>
<!-- Generator: Adobe Illustrator 19.0.0, SVG Export Plug-In . SVG Version: 6.00 Build 0)  -->
<svg version="1.1" id="Layer_1" xmlns="http://www.w3.org/2000/svg" xmlns:xlink="http://www.w3.org/1999/xlink" x="0px" y="0px"
	 viewBox="0 0 511.999 511.999" style="enable-background:new 0 0 511.999 511.999;" xml:space="preserve">
<g>
	<path style="fill:#ABB8B9;" d="M255.998,21.335c-83.027,0-163.762-3.986-245.33-10.669v277.331
		c80.944-7.305,163.553-10.666,245.33-10.666c81.779,0,164.387,3.361,245.332,10.666V10.667
		C419.763,17.349,339.025,21.335,255.998,21.335z"/>
	<g>
		<path style="fill:#D12D4E;" d="M193.78,337.777h-53.337c-22.487,0-40.887,18.398-40.887,40.887v40.889h5.334h124.44h5.338v-40.889
			C234.667,356.175,216.269,337.777,193.78,337.777z"/>
		<path style="fill:#D12D4E;" d="M318.219,337.777c-22.489,0-40.889,18.398-40.889,40.887v40.889h5.337h124.44h5.335v-40.889
			c0-22.489-18.398-40.887-40.887-40.887H318.219z"/>
		<path style="fill:#D12D4E;" d="M145.777,460.441c0-22.489-18.398-40.887-40.887-40.887h-5.334H51.554
			c-22.489,0-40.886,18.398-40.886,40.887v40.892h135.109V460.441z"/>
		<path style="fill:#D12D4E;" d="M229.33,419.553c-22.487,0-40.886,18.398-40.886,40.887v40.892h135.11V460.44
			c0-22.489-18.397-40.887-40.886-40.887h-5.337h-42.662H229.33z"/>
		<path style="fill:#D12D4E;" d="M366.219,460.441v40.892h135.112v-40.892c0-22.489-18.399-40.887-40.89-40.887h-47.998h-5.335
			C384.619,419.553,366.219,437.952,366.219,460.441z"/>
	</g>
</g>
<g>
	<path style="fill:#000003;" d="M460.441,408.886H423.11v-30.222c0-28.428-23.128-51.555-51.555-51.555H318.22
		c-28.429,0-51.557,23.127-51.557,51.555v30.222h-21.327v-30.222c0-28.428-23.127-51.555-51.555-51.555h-53.337
		c-28.428,0-51.555,23.127-51.555,51.555v30.222H51.554c-28.427,0-51.554,23.127-51.554,51.555v40.892
		c0,5.892,4.776,10.667,10.667,10.667h135.109c5.891,0,10.667-4.776,10.667-10.667V460.44c0-11.282-3.653-21.722-9.824-30.22H187.6
		c-6.17,8.498-9.824,18.938-9.824,30.22v40.892c0,5.892,4.777,10.667,10.667,10.667h135.11c5.892,0,10.667-4.776,10.667-10.667
		V460.44c0-11.282-3.653-21.722-9.824-30.22h40.978c-6.171,8.498-9.824,18.938-9.824,30.22v40.892
		c0,5.892,4.776,10.667,10.667,10.667H501.33c5.891,0,10.667-4.776,10.667-10.667V460.44
		C511.999,432.014,488.87,408.886,460.441,408.886z M287.997,378.664c0-16.664,13.558-30.22,30.222-30.22h53.335
		c16.664,0,30.22,13.556,30.22,30.22v30.222H287.997V378.664z M110.223,378.664c0-16.664,13.557-30.22,30.22-30.22h53.337
		c16.663,0,30.22,13.556,30.22,30.22v30.222H110.223V378.664z M135.109,460.441v30.224H21.336v-30.224
		c0-16.664,13.555-30.22,30.219-30.22h48.001h5.334C121.553,430.221,135.109,443.778,135.109,460.441z M312.885,460.441v30.224
		H199.111v-30.224c0-16.664,13.556-30.22,30.219-30.22h5.338h42.662h5.337C299.329,430.221,312.885,443.778,312.885,460.441z
		 M490.664,490.666H376.887v-30.224c0-16.664,13.557-30.22,30.221-30.22h5.335h47.998c16.665,0,30.223,13.557,30.223,30.22V490.666z
		"/>
	<path style="fill:#000003;" d="M508.558,2.822c-2.192-2.02-5.128-3.026-8.099-2.787C413.116,7.19,333.151,10.668,255.998,10.668
		S98.883,7.19,11.539,0.035c-2.97-0.239-5.908,0.767-8.1,2.787c-2.192,2.019-3.438,4.864-3.438,7.845v277.331
		c0,2.996,1.26,5.853,3.471,7.875c1.975,1.804,4.544,2.793,7.195,2.793c0.319,0,0.639-0.014,0.959-0.044
		c78.11-7.049,160.328-10.623,244.372-10.623c84.041,0,166.261,3.575,244.373,10.623c2.988,0.27,5.943-0.73,8.155-2.75
		c2.211-2.021,3.472-4.878,3.472-7.875V10.667C511.999,7.686,510.751,4.842,508.558,2.822z M490.664,276.353
		c-75.262-6.43-154.14-9.688-234.665-9.688c-80.525,0-159.404,3.258-234.662,9.688V22.226c83.457,6.576,160.334,9.777,234.661,9.777
		c74.329,0,151.207-3.2,234.665-9.777v254.127H490.664z"/>
	<path style="fill:#000003;" d="M53.325,166.65c5.892,0,10.667-4.776,10.667-10.667v-0.254c0-5.892-4.776-10.667-10.667-10.667
		c-5.893,0-10.667,4.776-10.667,10.667v0.254C42.658,161.875,47.434,166.65,53.325,166.65z"/>
	<path style="fill:#000003;" d="M53.329,175.958c-5.892,0-10.667,4.776-10.667,10.669l0.002,55.112
		c0,5.892,4.778,10.667,10.669,10.667c5.892,0,10.666-4.777,10.666-10.669l-0.002-55.112
		C63.997,180.734,59.221,175.958,53.329,175.958z"/>
	<path style="fill:#000003;" d="M458.657,153.355c5.892,0,10.667-4.776,10.667-10.667v-0.254c0-5.892-4.776-10.667-10.667-10.667
		c-5.892,0-10.667,4.776-10.667,10.667v0.254C447.99,148.579,452.764,153.355,458.657,153.355z"/>
	<path style="fill:#000003;" d="M458.661,122.458L458.661,122.458c5.891,0,10.667-4.776,10.667-10.667l0.002-55.112
		c0.001-5.892-4.776-10.667-10.666-10.667c-0.001,0,0,0-0.001,0c-5.889,0-10.666,4.776-10.667,10.667l-0.002,55.113
		C447.994,117.683,452.769,122.458,458.661,122.458z"/>
</g>
<g>
</g>
<g>
</g>
<g>
</g>
<g>
</g>
<g>
</g>
<g>
</g>
<g>
</g>
<g>
</g>
<g>
</g>
<g>
</g>
<g>
</g>
<g>
</g>
<g>
</g>
<g>
</g>
<g>
</g>
</svg>
