<?xml version="1.0" ?>
<svg data-name="Layer 1" height="512px" id="Layer_1" viewBox="0 0 512 512" width="512px"
     xmlns="http://www.w3.org/2000/svg">
  <defs>
    <style>.cls-1 {
      fill: #afedef;
    }

    .cls-1, .cls-2, .cls-3, .cls-4, .cls-5 {
      stroke: #493527;
      stroke-linejoin: round;
      stroke-width: 10px;
    }

    .cls-1, .cls-4, .cls-5 {
      stroke-linecap: round;
    }

    .cls-2, .cls-5 {
      fill: #ffd9e4;
    }

    .cls-3 {
      fill: #ea504c;
    }

    .cls-4 {
      fill: none;
    }</style>
  </defs>
  <title/>
  <path class="cls-1" d="M179.12,390.55c0,8.7,34.42,15.75,76.88,15.75s76.88-7.05,76.88-15.75l13.25-122.14H165.87Z"/>
  <line class="cls-2" x1="209.87" x2="224.18" y1="272.95" y2="404.89"/>
  <line class="cls-2" x1="302.13" x2="287.82" y1="272.95" y2="404.89"/>
  <path class="cls-2"
        d="M333.47,221.15a36.24,36.24,0,0,0,1.89-11.56c0-22.29-20.72-40.68-45.88-40.69a48.69,48.69,0,0,0-33.3,12.68,48.69,48.69,0,0,0-33.31-12.68c-25.15,0-45.88,18.39-45.87,40.67a36.56,36.56,0,0,0,1.85,11.48c1.89,5.7-1.41,11.68-7.7,13.73-18.1,5.89-30.85,21.61-30,39.86,1,21.29,20.83,38.52,44.87,39a49.83,49.83,0,0,0,28.18-7.9,13.63,13.63,0,0,1,14.61,0,50.65,50.65,0,0,0,54.42,0,13.63,13.63,0,0,1,14.61,0,49.85,49.85,0,0,0,28.18,7.9c24-.45,43.84-17.63,44.86-38.88.88-18.21-11.76-33.91-29.76-39.88C334.85,232.78,331.57,226.82,333.47,221.15Z"/>
  <circle class="cls-3" cx="253.61" cy="164.87" r="31.86"/>
  <path class="cls-4" d="M251.83,152.22s1.78-34.14,33.64-46.52"/>
  <line class="cls-2" x1="171.17" x2="179.12" y1="317.21" y2="390.55"/>
  <line class="cls-5" x1="302.13" x2="305.04" y1="222.26" y2="238.33"/>
  <line class="cls-5" x1="323.84" x2="306.16" y1="278.77" y2="283.21"/>
  <line class="cls-5" x1="206.89" x2="189.31" y1="277.7" y2="272.95"/>
  <line class="cls-5" x1="270.81" x2="253.99" y1="251.35" y2="257.9"/>
  <line class="cls-5" x1="211.76" x2="222.29" y1="236.97" y2="223.62"/>
</svg>
