<?xml version="1.0" ?>
<svg data-name="Layer 1" height="512px" id="Layer_1" viewBox="0 0 512 512" width="512px"
     xmlns="http://www.w3.org/2000/svg">
  <defs>
    <style>.cls-1, .cls-3 {
      fill: #f6b691;
    }

    .cls-1, .cls-2, .cls-3 {
      stroke: #493527;
      stroke-linejoin: round;
      stroke-width: 10px;
    }

    .cls-2 {
      fill: #fcaec9;
    }

    .cls-3 {
      stroke-linecap: round;
    }</style>
  </defs>
  <title/>
  <path class="cls-1"
        d="M400,253.57a144,144,0,0,0-288,0c0,.81,0,1.62,0,2.43a144,144,0,0,0,288,0C400,255.19,400,254.38,400,253.57ZM256,302.28A46.28,46.28,0,0,1,209.72,256a45.49,45.49,0,0,1,.26-5,46.29,46.29,0,0,1,92,0,45.49,45.49,0,0,1,.26,5A46.28,46.28,0,0,1,256,302.28Z"/>
  <path class="cls-2"
        d="M400,253.57A27,27,0,0,0,366.77,256a26.94,26.94,0,0,1-36.3,0A26.93,26.93,0,0,0,302,251a46.29,46.29,0,0,0-92,0,27,27,0,0,0-28.45,5,26.94,26.94,0,0,1-36.3,0A26.95,26.95,0,0,0,112,253.57a144,144,0,0,1,288,0Z"/>
  <line class="cls-3" x1="158.78" x2="179.26" y1="221.1" y2="216.66"/>
  <line class="cls-3" x1="330.36" x2="349.71" y1="170.54" y2="178.61"/>
  <line class="cls-3" x1="196.69" x2="188.87" y1="154.55" y2="173.99"/>
  <line class="cls-3" x1="327.8" x2="347.18" y1="213.96" y2="221.96"/>
  <line class="cls-3" x1="232.1" x2="251.4" y1="173.37" y2="181.55"/>
  <line class="cls-3" x1="294.69" x2="280.54" y1="142.29" y2="157.75"/>
</svg>
