<?xml version="1.0" ?>
<svg data-name="Layer 1" height="512px" id="Layer_1" viewBox="0 0 512 512" width="512px"
     xmlns="http://www.w3.org/2000/svg">
  <defs>
    <style>.cls-1 {
      fill: #e9b993;
    }

    .cls-1, .cls-2, .cls-3 {
      stroke: #493527;
      stroke-linejoin: round;
      stroke-width: 10px;
    }

    .cls-2 {
      fill: #c6896a;
    }

    .cls-3 {
      fill: none;
    }</style>
  </defs>
  <title/>
  <path class="cls-1"
        d="M198.13,228.41a634.89,634.89,0,0,0,23.33-64.26c2.3-7.62,4.46-15.29,7.56-22.69a105.5,105.5,0,0,1,15.51-25.81,12.62,12.62,0,0,1,4.32-3.81c2.14-1,4.69-1,7.12-.93q7.47.15,14.94.41c1.76.06,3.7.19,5,1.24s1.5,3.06,1.46,4.74c-1.14,49.17-35.87,93.51-42.52,142.36"/>
  <path class="cls-1"
        d="M230.62,262.39l2.74-44.75c.6-9.92,1.46-20.46,8.27-28.49a10.75,10.75,0,0,1,4-3.15,15.52,15.52,0,0,1,5.83-.72l15.45.05a6,6,0,0,1,2.71.43c1.51.79,1.67,2.59,1.66,4.11q-.31,37.53-3.45,75"/>
  <path class="cls-1"
        d="M258.45,258.33c-1.52-13.87,2.81-27.79,2.17-41.74-.29-6.5-1.66-12.89-2.46-19.34a109.15,109.15,0,0,1,.09-27.27c.48-3.71,1.41-7.82,4.45-9.79,2.06-1.34,4.62-1.37,7.05-1.36l27.6.1A318.74,318.74,0,0,0,296,193.2c.36,26.56,3.88,54.1-5.08,79"/>
  <path class="cls-1"
        d="M278.36,261.3a313.66,313.66,0,0,1,43.52-76.89,9.24,9.24,0,0,1,4.15-3.53,11.44,11.44,0,0,1,4.45-.22l9,.75A5.68,5.68,0,0,1,342,182a3.86,3.86,0,0,1,1.48,2.35c1.58,5.54.19,11.39-1.72,16.85A196.16,196.16,0,0,1,333.73,220L317.1,255.21"/>
  <path class="cls-1"
        d="M179.18,259.3a212.77,212.77,0,0,0-3-62.48c-1.83-9.25-4.28-18.44-4.94-27.81-.38-5.38-.09-11,3-15.73s9.63-8.07,15.65-6.56c7.69,1.93,10.4,10,11.37,16.84.85,5.95,1.33,11.94,1.81,17.92l6.78,84.83"/>
  <polygon class="cls-2" points="341.3 239.17 332.3 401.11 176.8 401.11 167.8 239.17 341.3 239.17"/>
  <line class="cls-3" x1="169.74" x2="339.36" y1="274.11" y2="274.11"/>
</svg>
