<?xml version="1.0" ?>
<svg data-name="Layer 1" height="512px" id="Layer_1" viewBox="0 0 512 512" width="512px"
     xmlns="http://www.w3.org/2000/svg">
  <defs>
    <style>.cls-1 {
      fill: #fee1a1;
    }

    .cls-1, .cls-2, .cls-4 {
      stroke: #493527;
      stroke-linejoin: round;
      stroke-width: 10px;
    }

    .cls-2 {
      fill: #ea504c;
    }

    .cls-3 {
      fill: #493527;
    }

    .cls-4 {
      fill: none;
      stroke-linecap: round;
    }</style>
  </defs>
  <title/>
  <path class="cls-1"
        d="M365.67,351.08a20.79,20.79,0,0,0-29.4,0l-2.6,2.6-36.33-36.35V262.76L345,275.23a21.66,21.66,0,0,0,26.44-15.47h0A21.66,21.66,0,0,0,356,233.32l-69.79-18.26v-3.54a56.09,56.09,0,1,0-60.36,0v3.54L156,233.32a21.66,21.66,0,0,0-15.48,26.44h0A21.66,21.66,0,0,0,167,275.23l47.67-12.47v54.57l-36.33,36.35-2.6-2.6a20.78,20.78,0,1,0-29.39,29.39l17.29,17.29a20.77,20.77,0,0,0,29.39,0L253.77,337h4.46L319,397.76a20.77,20.77,0,0,0,29.39,0l17.29-17.29a20.78,20.78,0,0,0,0-29.39Z"/>
  <circle class="cls-2" cx="256" cy="310.59" r="11.58"/>
  <circle class="cls-2" cx="256" cy="271.81" r="11.58"/>
  <path class="cls-3"
        d="M268.08,220.44l-10.66,6.16a3.4,3.4,0,0,1-3.38,0l-10.66-6.16a3.38,3.38,0,0,0-5.07,2.94v21.07a3.38,3.38,0,0,0,5.07,2.94L254,241.24a3.35,3.35,0,0,1,3.38,0l10.66,6.15a3.39,3.39,0,0,0,5.08-2.94V223.38A3.39,3.39,0,0,0,268.08,220.44Z"/>
  <circle class="cls-3" cx="275.47" cy="155.17" r="9.69"/>
  <circle class="cls-3" cx="236.53" cy="155.17" r="9.69"/>
  <path class="cls-4" d="M273.85,180.92a18.85,18.85,0,0,1-34.72,0"/>
</svg>
