<?xml version="1.0" encoding="iso-8859-1"?>
<!-- Generator: Adobe Illustrator 19.0.0, SVG Export Plug-In . SVG Version: 6.00 Build 0)  -->
<svg id="Layer_1" style="enable-background:new 0 0 512.002 512.002;" version="1.1" viewBox="0 0 512.002 512.002" x="0px"
     xml:space="preserve" xmlns="http://www.w3.org/2000/svg" y="0px">
<g>
	<path d="M256.003,138.665h49.778h49.777h39.612c0-14.77-8.007-27.669-19.916-34.599
		c1.054-5.1,1.611-10.382,1.611-15.794c-0.001-42.86-34.745-77.604-77.605-77.604c-29.34,0-54.875,16.283-68.065,40.304
		c-3.869-0.892-7.898-1.365-12.039-1.365c-28.368,0-51.558,22.149-53.231,50.096c-2.919-0.677-5.962-1.037-9.087-1.037
		c-22.091,0-39.999,17.911-39.999,40h39.609h49.779h16.47H256.003z" style="fill:#FCD051;"/>
  <path d="M303.251,267.681c-13.826-5.423-29.987-8.539-47.248-8.539c-17.265,0-33.424,3.116-47.251,8.539
		c-27.063,10.616-45.195,30.071-45.195,52.318v0.036l0.122,3.123c1.671,21.474,20.247,40.008,47.14,49.945
		c13.359,4.935,28.771,7.75,45.183,7.75c49.425,0,89.793-25.534,92.319-57.659l0.125-3.196
		C348.447,297.752,330.317,278.297,303.251,267.681z" style="fill:#ED8C18;"/>
  <path d="M348.321,323.195l-6.986,178.137h42.666l21.335-362.668h-10.167h-39.612l-7.111,181.335
		C348.447,321.07,348.405,322.139,348.321,323.195z" style="fill:#ABB8B9;"/>
  <path d="M303.249,267.686c27.069,10.612,45.197,30.067,45.197,52.313l7.111-181.335H305.78L303.249,267.686z
		" style="fill:#D12D4E;"/>
  <path d="M256.003,259.141c17.262,0,33.42,3.118,47.245,8.544l2.531-129.021h-49.778v120.478H256.003z"
        style="fill:#ABB8B9;"/>
  <path d="M348.321,323.195c-1.688,21.461-20.264,39.981-47.145,49.911l-2.509,128.226h42.668L348.321,323.195
		z" style="fill:#D12D4E;"/>
  <path d="M298.668,501.333l2.509-128.226c-13.357,4.935-28.767,7.748-45.173,7.748v120.479H298.668z"
        style="fill:#ABB8B9;"/>
  <path d="M163.684,323.195l6.986,178.137h-42.667l-21.335-362.668h10.167h39.612l7.111,181.335
		C163.558,321.07,163.6,322.139,163.684,323.195z" style="fill:#D12D4E;"/>
  <path d="M208.755,267.686c-27.066,10.612-45.197,30.067-45.197,52.313l-7.111-181.335h49.779
		L208.755,267.686z" style="fill:#ABB8B9;"/>
  <path d="M256.003,259.141c-17.265,0-33.422,3.118-47.248,8.544l-2.529-129.021h49.778V259.141z" style="fill:#D12D4E;"/>
  <path d="M163.684,323.195c1.687,21.461,20.263,39.981,47.144,49.911l2.507,128.226H170.67L163.684,323.195z"
        style="fill:#ABB8B9;"
  />
  <path d="M213.335,501.333l-2.507-128.226c13.357,4.935,28.767,7.748,45.176,7.748v120.479H213.335z"
        style="fill:#D12D4E;"/>
</g>
  <g>
	<path d="M413.097,131.346c-2.015-2.138-4.823-3.35-7.761-3.35h-0.66
		c-2.459-11.317-8.742-21.558-17.811-28.857c0.442-3.599,0.667-7.235,0.667-10.869C387.53,39.599,347.932,0,299.259,0
		C269.6,0,242.113,14.876,225.82,39.284c-2.211-0.229-4.438-0.346-6.665-0.346c-30.001,0-55.479,20.806-62.241,49.059
		c-0.026,0-0.052,0-0.078,0c-24.278,0-44.614,17.168-49.527,40h-0.642c-2.938,0-5.747,1.212-7.761,3.35
		c-2.016,2.138-3.061,5.012-2.888,7.944l21.334,362.669c0.332,5.638,5.001,10.041,10.649,10.041h213.313
		c0.009,0,0.017,0.001,0.025,0.001c0.004,0,0.009-0.001,0.011-0.001H384c5.648,0,10.318-4.403,10.65-10.041l21.333-362.669
		C416.158,136.358,415.114,133.483,413.097,131.346z M156.836,109.332c2.253,0,4.5,0.256,6.677,0.762
		c3.062,0.708,6.278,0.034,8.794-1.845c2.516-1.88,4.076-4.774,4.264-7.909c1.346-22.467,20.051-40.066,42.584-40.066
		c3.254,0,6.498,0.368,9.643,1.092c4.65,1.07,9.448-1.076,11.747-5.26c11.777-21.447,34.275-34.771,58.714-34.771
		c36.91,0,66.936,30.028,66.936,66.936c0,4.589-0.468,9.176-1.39,13.634c-0.929,4.492,1.117,9.075,5.082,11.381
		c5.811,3.381,10.202,8.623,12.591,14.71H234.45c4.758-23.136,24.721-40.472,49.334-41.147c5.888-0.161,10.532-5.066,10.37-10.957
		c-0.16-5.89-5.063-10.529-10.956-10.372c-19.16,0.525-37.073,8.379-50.441,22.116c-10.856,11.157-17.751,25.206-19.958,40.358
		h-83.287C133.788,117.081,144.424,109.332,156.836,109.332z M300.018,432.38c-5.867-0.108-10.757,4.566-10.873,10.456
		l-0.936,47.829h-21.537v-99.529c22.699-1.601,43.881-8.282,60.512-19.231c3.157-2.078,6.094-4.271,8.809-6.567l-4.914,125.327
		h-21.533l0.929-47.411C310.591,437.364,305.91,432.495,300.018,432.38z M294.9,149.332l-2.035,103.813
		c-8.365-2.199-17.155-3.649-26.194-4.287v-99.527H294.9V149.332z M245.336,248.859c-9.04,0.638-17.831,2.088-26.196,4.288
		l-2.036-103.814h28.233V248.859z M195.764,149.332l2.186,111.453c-4.617,2.173-9.018,4.601-13.127,7.306
		c-4.54,2.989-8.629,6.216-12.247,9.642l-5.035-128.4h28.224V149.332z M174.231,319.93c0.064-27.175,37.483-50.121,81.773-50.121
		c44.26,0,81.659,22.915,81.774,50.067l-0.107,2.67c-2.246,26.077-38.73,47.64-81.667,47.64c-43.485,0-80.324-22.12-81.71-48.643
		L174.231,319.93z M245.336,391.136v99.529h-21.541l-2.02-103.14C229.343,389.352,237.243,390.566,245.336,391.136z
		 M339.429,277.729c-3.617-3.425-7.705-6.651-12.245-9.639c-4.109-2.705-8.511-5.134-13.131-7.307l2.186-111.452h28.225
		L339.429,277.729z M117.981,149.332h28.207l6.712,171.156c0.011,1.1,0.05,2.195,0.129,3.286l3.765,95.99
		c0.225,5.744,4.953,10.249,10.65,10.249c0.142,0,0.284-0.003,0.426-0.009c5.887-0.232,10.471-5.191,10.242-11.078l-2.103-53.591
		c2.716,2.296,5.654,4.491,8.812,6.57c4.802,3.161,9.983,5.967,15.47,8.398l2.163,110.362h-64.394L117.981,149.332z
		 M373.944,490.665H352.43l6.54-166.802c0.09-1.189,0.135-2.384,0.142-3.585l6.702-170.945h28.208L373.944,490.665z"
        style="fill:#000003;"/>
    <path d="M310.846,93.622l0.221,0.127c1.692,0.988,3.542,1.457,5.369,1.457c3.667,0,7.238-1.893,9.222-5.289
		c2.971-5.087,1.257-11.62-3.832-14.591c-0.188-0.11-0.379-0.219-0.569-0.325c-5.142-2.875-11.642-1.037-14.517,4.106
		C303.864,84.248,305.703,90.747,310.846,93.622z" style="fill:#000003;"/>
    <path d="M168.211,439.04c-5.886,0.238-10.466,5.203-10.227,11.09l0.029,0.747
		c0.234,5.74,4.958,10.237,10.65,10.237c0.146,0,0.293-0.003,0.439-0.01c5.886-0.238,10.466-5.204,10.228-11.09l-0.031-0.747
		C179.063,443.38,174.086,438.805,168.211,439.04z" style="fill:#000003;"/>
    <path d="M311.054,413.789c0.123-5.891-4.553-10.765-10.442-10.887c-5.917-0.132-10.766,4.553-10.888,10.442
		l-0.013,0.624c-0.123,5.891,4.553,10.765,10.442,10.888c0.077,0.001,0.153,0.002,0.227,0.002c5.788,0,10.541-4.631,10.661-10.446
		L311.054,413.789z" style="fill:#000003;"/>
</g>
  <g>
</g>
  <g>
</g>
  <g>
</g>
  <g>
</g>
  <g>
</g>
  <g>
</g>
  <g>
</g>
  <g>
</g>
  <g>
</g>
  <g>
</g>
  <g>
</g>
  <g>
</g>
  <g>
</g>
  <g>
</g>
  <g>
</g>
</svg>
