<?xml version="1.0" standalone="no"?>
<!DOCTYPE svg PUBLIC "-//W3C//DTD SVG 20010904//EN"
  "http://www.w3.org/TR/2001/REC-SVG-20010904/DTD/svg10.dtd">
<svg height="700.000000pt" preserveAspectRatio="xMidYMid meet"
     version="1.0" viewBox="0 0 700.000000 700.000000" width="700.000000pt"
     xmlns="http://www.w3.org/2000/svg">
  <metadata>
    Created by potrace 1.14, written by Peter Selinger 2001-2017
  </metadata>
  <g fill="#000000"
     stroke="none" transform="translate(0.000000,700.000000) scale(0.100000,-0.100000)">
    <path d="M3308 6705 c-2 -2 -39 -6 -83 -9 -71 -6 -109 -10 -180 -20 -11 -2
-42 -7 -70 -11 -27 -4 -66 -11 -85 -15 -19 -5 -51 -11 -70 -14 -19 -3 -84 -19
-145 -36 -60 -16 -117 -32 -126 -34 -122 -32 -471 -182 -624 -270 -378 -215
-675 -476 -991 -869 -130 -162 -320 -500 -412 -732 -36 -91 -110 -309 -117
-345 -2 -8 -12 -51 -24 -95 -20 -78 -46 -219 -57 -300 -2 -22 -7 -51 -9 -65
-25 -155 -26 -642 -1 -767 3 -12 7 -48 11 -80 3 -32 8 -65 10 -73 2 -8 6 -33
10 -55 14 -99 80 -344 131 -488 186 -526 537 -1033 954 -1377 41 -34 84 -69
95 -79 47 -39 227 -162 321 -219 93 -56 250 -138 364 -190 163 -74 461 -171
611 -197 18 -3 35 -7 38 -9 6 -4 47 -11 119 -21 20 -3 55 -8 77 -12 67 -10 87
-12 180 -20 50 -5 801 -8 1670 -8 l1580 0 46 21 c135 63 205 209 165 344 -9
30 -28 72 -44 94 -35 51 -116 102 -178 113 -27 5 -291 8 -587 8 l-538 0 28 21
c15 13 75 60 133 105 125 98 358 327 463 455 250 305 439 643 562 1006 39 115
91 302 101 363 3 22 8 43 10 46 3 5 15 74 29 174 4 22 8 51 10 64 31 185 25
643 -11 861 -29 178 -28 170 -60 300 -115 464 -341 912 -646 1281 -97 117
-363 376 -479 466 -386 300 -779 491 -1239 602 -146 35 -253 54 -375 67 -27 3
-66 8 -85 10 -38 6 -477 14 -482 9z"/>
  </g>
</svg>
